<svg width="131" height="23" viewBox="0 0 131 23" fill="none" xmlns="http://www.w3.org/2000/svg">
<g clip-path="url(#clip0_34_17)">
<path d="M20.1308 8.4193C20.0732 8.24949 19.967 8.10028 19.8256 7.99009C19.6841 7.8799 19.5134 7.81356 19.3347 7.79925L14.1055 7.38374L11.8427 2.37473C11.7706 2.2134 11.6534 2.07637 11.5052 1.98019C11.357 1.884 11.1841 1.83277 11.0074 1.83267C10.8307 1.83258 10.6577 1.88362 10.5094 1.97964C10.3611 2.07566 10.2437 2.21256 10.1715 2.37381L7.90867 7.38374L2.67951 7.79925C2.50382 7.81317 2.33586 7.87741 2.19572 7.98428C2.05559 8.09116 1.94921 8.23615 1.88931 8.4019C1.82941 8.56765 1.81854 8.74715 1.85799 8.91892C1.89744 9.09069 1.98553 9.24746 2.11175 9.37047L5.97605 13.1376L4.60937 19.0555C4.56788 19.2347 4.58118 19.4222 4.64755 19.5936C4.71392 19.7651 4.8303 19.9127 4.98159 20.0172C5.13288 20.1217 5.31208 20.1784 5.49596 20.1798C5.67983 20.1812 5.85988 20.1273 6.01274 20.0251L11.0071 16.6955L16.0014 20.0251C16.1577 20.1288 16.3419 20.1822 16.5294 20.1781C16.7169 20.174 16.8986 20.1125 17.0502 20.0021C17.2017 19.8916 17.3158 19.7373 17.3771 19.5601C17.4383 19.3828 17.4438 19.1911 17.3929 19.0106L15.7152 13.1403L19.8758 9.39616C20.1482 9.15034 20.2482 8.76693 20.1308 8.4193V8.4193Z" fill="#52D461"/>
<path d="M47.1457 8.4193C47.0881 8.24949 46.9819 8.10028 46.8404 7.99009C46.699 7.8799 46.5283 7.81356 46.3495 7.79925L41.1204 7.38374L38.8576 2.37473C38.7855 2.2134 38.6683 2.07637 38.5201 1.98019C38.3719 1.884 38.199 1.83277 38.0223 1.83267C37.8456 1.83258 37.6726 1.88362 37.5243 1.97964C37.376 2.07566 37.2586 2.21256 37.1864 2.37381L34.9236 7.38374L29.6944 7.79925C29.5187 7.81317 29.3508 7.87741 29.2106 7.98428C29.0705 8.09116 28.9641 8.23615 28.9042 8.4019C28.8443 8.56765 28.8334 8.74715 28.8729 8.91892C28.9123 9.09069 29.0004 9.24746 29.1266 9.37047L32.9909 13.1376L31.6243 19.0555C31.5828 19.2347 31.5961 19.4222 31.6624 19.5936C31.7288 19.7651 31.8452 19.9127 31.9965 20.0172C32.1478 20.1217 32.327 20.1784 32.5109 20.1798C32.6947 20.1812 32.8748 20.1273 33.0276 20.0251L38.022 16.6955L43.0163 20.0251C43.1726 20.1288 43.3568 20.1822 43.5443 20.1781C43.7318 20.174 43.9135 20.1125 44.0651 20.0021C44.2166 19.8916 44.3307 19.7373 44.392 19.5601C44.4532 19.3828 44.4587 19.1911 44.4078 19.0106L42.7301 13.1403L46.8907 9.39616C47.1631 9.15034 47.2631 8.76693 47.1457 8.4193V8.4193Z" fill="#52D461"/>
<path d="M74.1569 8.4193C74.0993 8.24949 73.9932 8.10028 73.8517 7.99009C73.7102 7.8799 73.5395 7.81356 73.3608 7.79925L68.1316 7.38374L65.8688 2.37473C65.7967 2.2134 65.6795 2.07637 65.5313 1.98019C65.3831 1.884 65.2102 1.83277 65.0335 1.83267C64.8568 1.83258 64.6839 1.88362 64.5355 1.97964C64.3872 2.07566 64.2698 2.21256 64.1976 2.37381L61.9348 7.38374L56.7056 7.79925C56.5299 7.81317 56.362 7.87741 56.2218 7.98428C56.0817 8.09116 55.9753 8.23615 55.9154 8.4019C55.8555 8.56765 55.8447 8.74715 55.8841 8.91892C55.9236 9.09069 56.0117 9.24746 56.1379 9.37047L60.0022 13.1376L58.6355 19.0555C58.594 19.2347 58.6073 19.4222 58.6737 19.5936C58.74 19.7651 58.8564 19.9127 59.0077 20.0172C59.159 20.1217 59.3382 20.1784 59.5221 20.1798C59.706 20.1812 59.886 20.1273 60.0389 20.0251L65.0332 16.6955L70.0275 20.0251C70.1838 20.1288 70.368 20.1822 70.5555 20.1781C70.743 20.174 70.9248 20.1125 71.0763 20.0021C71.2278 19.8916 71.3419 19.7373 71.4032 19.5601C71.4644 19.3828 71.47 19.1911 71.419 19.0106L69.7414 13.1403L73.9019 9.39616C74.1744 9.15034 74.2743 8.76693 74.1569 8.4193V8.4193Z" fill="#52D461"/>
<path d="M101.171 8.4193C101.113 8.24949 101.007 8.10028 100.865 7.99009C100.724 7.8799 100.553 7.81356 100.374 7.79925L95.1453 7.38374L92.8825 2.37473C92.8104 2.2134 92.6932 2.07637 92.545 1.98019C92.3968 1.884 92.2239 1.83277 92.0472 1.83267C91.8705 1.83258 91.6975 1.88362 91.5492 1.97964C91.4009 2.07566 91.2835 2.21256 91.2113 2.37381L88.9485 7.38374L83.7193 7.79925C83.5436 7.81317 83.3757 7.87741 83.2355 7.98428C83.0954 8.09116 82.989 8.23615 82.9291 8.4019C82.8692 8.56765 82.8583 8.74715 82.8978 8.91892C82.9372 9.09069 83.0253 9.24746 83.1515 9.37047L87.0158 13.1376L85.6492 19.0555C85.6077 19.2347 85.621 19.4222 85.6873 19.5936C85.7537 19.7651 85.8701 19.9127 86.0214 20.0172C86.1727 20.1217 86.3519 20.1784 86.5358 20.1798C86.7196 20.1812 86.8997 20.1273 87.0525 20.0251L92.0469 16.6955L97.0412 20.0251C97.1975 20.1288 97.3817 20.1822 97.5692 20.1781C97.7567 20.174 97.9384 20.1125 98.09 20.0021C98.2415 19.8916 98.3556 19.7373 98.4169 19.5601C98.4781 19.3828 98.4836 19.1911 98.4327 19.0106L96.755 13.1403L100.916 9.39616C101.188 9.15034 101.288 8.76693 101.171 8.4193V8.4193Z" fill="#52D461"/>
<path d="M128.184 8.4193C128.127 8.24949 128.021 8.10028 127.879 7.99009C127.738 7.8799 127.567 7.81356 127.388 7.79925L122.159 7.38374L119.896 2.37473C119.824 2.2134 119.707 2.07637 119.559 1.98019C119.41 1.884 119.238 1.83277 119.061 1.83267C118.884 1.83258 118.711 1.88362 118.563 1.97964C118.415 2.07566 118.297 2.21256 118.225 2.37381L115.962 7.38374L110.733 7.79925C110.557 7.81317 110.389 7.87741 110.249 7.98428C110.109 8.09116 110.003 8.23615 109.943 8.4019C109.883 8.56765 109.872 8.74715 109.911 8.91892C109.951 9.09069 110.039 9.24746 110.165 9.37047L114.03 13.1376L112.663 19.0555C112.621 19.2347 112.635 19.4222 112.701 19.5936C112.767 19.7651 112.884 19.9127 113.035 20.0172C113.186 20.1217 113.366 20.1784 113.549 20.1798C113.733 20.1812 113.913 20.1273 114.066 20.0251L119.061 16.6955L124.055 20.0251C124.211 20.1288 124.395 20.1822 124.583 20.1781C124.77 20.174 124.952 20.1125 125.104 20.0021C125.255 19.8916 125.369 19.7373 125.431 19.5601C125.492 19.3828 125.497 19.1911 125.446 19.0106L123.769 13.1403L127.929 9.39616C128.202 9.15034 128.302 8.76693 128.184 8.4193V8.4193Z" fill="#52D461"/>
</g>
<defs>
<clipPath id="clip0_34_17">
<rect width="130.068" height="22.0136" fill="white"/>
</clipPath>
</defs>
</svg>
