<?xml version="1.0" standalone="no"?>
<!DOCTYPE svg PUBLIC "-//W3C//DTD SVG 20010904//EN"
 "http://www.w3.org/TR/2001/REC-SVG-20010904/DTD/svg10.dtd">
<svg version="1.0" xmlns="http://www.w3.org/2000/svg"
 width="300.000000pt" height="60.000000pt" viewBox="0 0 300.000000 60.000000"
 preserveAspectRatio="xMidYMid meet">

<g transform="translate(0.000000,60.000000) scale(0.100000,-0.100000)"
fill="#BAFFC2" stroke="none">
<path d="M310 579 c-14 -6 -42 -26 -62 -46 l-37 -36 -40 18 c-31 13 -54 16
-93 12 -71 -9 -85 -24 -63 -68 10 -19 31 -49 48 -66 26 -28 38 -33 78 -33 26
0 51 -6 57 -13 6 -7 17 -76 24 -152 14 -162 21 -174 96 -177 88 -3 167 4 195
18 26 14 27 18 27 91 0 42 5 116 11 165 l12 88 36 0 c20 0 54 9 77 19 32 14
45 28 58 61 20 50 16 55 -51 65 -32 5 -59 1 -95 -12 l-50 -18 -20 28 c-41 56
-140 83 -208 56z m139 -24 c53 -27 55 -69 5 -110 -34 -29 -37 -35 -41 -100 -4
-59 0 -81 22 -139 14 -39 37 -80 51 -92 29 -28 30 -40 4 -54 -15 -8 -21 -6
-30 10 -9 17 -21 20 -74 20 -55 0 -66 -3 -78 -22 -13 -20 -17 -21 -32 -9 -21
17 -20 30 2 55 29 32 72 165 72 219 0 56 -11 81 -51 119 -17 16 -29 37 -29 53
0 53 112 85 179 50z m-160 -239 c9 -10 8 -16 -4 -26 -19 -16 -41 1 -32 24 8
20 21 20 36 2z m221 -11 c0 -19 -20 -29 -32 -17 -15 15 -2 43 17 36 8 -3 15
-12 15 -19z m-140 -250 c0 -14 -4 -25 -10 -25 -5 0 -10 11 -10 25 0 14 5 25
10 25 6 0 10 -11 10 -25z m50 -6 c0 -10 -4 -19 -10 -19 -5 0 -10 12 -10 26 0
14 4 23 10 19 6 -3 10 -15 10 -26z"/>
<path d="M347 523 c-12 -12 -7 -38 13 -62 17 -20 23 -21 36 -11 27 23 37 50
23 66 -12 14 -60 19 -72 7z"/>
</g>
</svg>
